<svg width="16.000000" height="19.000000" viewBox="0 0 16 19" fill="none" xmlns="http://www.w3.org/2000/svg" xmlns:xlink="http://www.w3.org/1999/xlink">
	<desc>
			Created with Pixso.
	</desc>
	<defs/>
	<path id="Vector" d="M1 17L15 17C15.26 17 15.51 17.1 15.7 17.29C15.89 17.48 16 17.73 16 18C16 18.26 15.89 18.51 15.7 18.7C15.51 18.89 15.26 19 15 19L1 19C0.73 19 0.48 18.89 0.29 18.7C0.1 18.51 0 18.26 0 18C0 17.73 0.1 17.48 0.29 17.29C0.48 17.1 0.73 17 1 17ZM9 11.17L12.24 7.93L13.65 9.34L8 15L2.34 9.34L3.75 7.93L7 11.17L7 0L9 0L9 11.17Z" fill="#8C8787" fill-opacity="1.000000" fill-rule="evenodd"/>
</svg>
