<svg width="53.000000" height="57.000000" viewBox="0 0 53 57" fill="none" xmlns="http://www.w3.org/2000/svg" xmlns:xlink="http://www.w3.org/1999/xlink">
	<desc>
			Created with Pixso.
	</desc>
	<defs>
		<clipPath id="clip113_47">
			<rect id="logos:netflix-icon" rx="0.000000" width="49.687500" height="53.687500" transform="translate(1.656250 1.656250)" fill="white" fill-opacity="0"/>
		</clipPath>
		<radialGradient gradientTransform="translate(26.1609 15.6199) rotate(0) scale(13.9446 14.9971)" cx="0.000000" cy="0.000000" r="1.000000" id="paint_radial_113_51_0" gradientUnits="userSpaceOnUse">
			<stop stop-color="#000000"/>
			<stop offset="1.000000" stop-color="#000000" stop-opacity="0.000000"/>
		</radialGradient>
		<radialGradient gradientTransform="translate(26.1609 15.6199) rotate(0) scale(13.9446 14.9971)" cx="0.000000" cy="0.000000" r="1.000000" id="paint_radial_113_55_0" gradientUnits="userSpaceOnUse">
			<stop stop-color="#000000"/>
			<stop offset="1.000000" stop-color="#000000" stop-opacity="0.000000"/>
		</radialGradient>
	</defs>
	<rect id="logos:netflix-icon" rx="0.000000" width="49.687500" height="53.687500" transform="translate(1.656250 1.656250)" fill="#FFFFFF" fill-opacity="0"/>
	<g clip-path="url(#clip113_47)">
		<path id="Vector" d="M0 0L52.98 0L52.98 56.97L0 56.97L0 0Z" fill="#000000" fill-opacity="0" fill-rule="nonzero"/>
		<path id="Vector" d="M29.33 9.19L29.31 17.73L29.3 26.27L28.64 24.29L28.64 24.28L27.8 43.3C28.63 45.82 29.07 47.16 29.08 47.17C29.09 47.18 29.56 47.21 30.13 47.24C31.86 47.33 34.01 47.53 35.64 47.75C36.01 47.8 36.34 47.82 36.36 47.8C36.38 47.78 36.39 39.09 36.38 28.48L36.37 9.19L29.33 9.19Z" fill="#B1060F" fill-opacity="1.000000" fill-rule="nonzero"/>
		<path id="Vector" d="M29.31 17.73L29.3 26.27L28.64 24.29L28.64 24.28L27.8 43.3C28.63 45.82 29.07 47.16 29.08 47.17C29.09 47.18 29.56 47.21 30.13 47.24C31.86 47.33 34.01 47.53 35.64 47.75C36.01 47.8 36.34 47.82 36.36 47.8C36.38 47.78 36.39 39.09 36.38 28.48L36.37 9.19L29.33 9.19L29.31 17.73Z" stroke="#000000" stroke-opacity="1.000000" stroke-width="0.611984"/>
		<path id="Vector" d="M16.59 9.16L16.59 28.47C16.59 39.09 16.6 47.79 16.61 47.81C16.62 47.82 17.23 47.76 17.97 47.67C18.7 47.58 19.72 47.47 20.23 47.42C21 47.35 23.33 47.19 23.59 47.19C23.67 47.19 23.68 46.76 23.69 39.01L23.7 30.83L24.26 32.54L24.46 33.14L25.31 14.13L25.02 13.25C24.58 11.93 24.15 10.62 23.71 9.3L23.67 9.16L16.59 9.16Z" fill="#B1060F" fill-opacity="1.000000" fill-rule="nonzero"/>
		<path id="Vector" d="M16.59 28.47C16.59 39.09 16.6 47.79 16.61 47.81C16.62 47.82 17.23 47.76 17.97 47.67C18.7 47.58 19.72 47.47 20.23 47.42C21 47.35 23.33 47.19 23.59 47.19C23.67 47.19 23.68 46.76 23.69 39.01L23.7 30.83L24.26 32.54L24.46 33.14L25.31 14.13L25.02 13.25C24.58 11.93 24.15 10.62 23.71 9.3L23.67 9.16L16.59 9.16L16.59 28.47Z" stroke="#000000" stroke-opacity="1.000000" stroke-width="0.611984"/>
		<path id="Vector" d="M16.59 9.16L16.59 20L23.69 40.26C23.69 39.79 23.69 39.54 23.69 39.01L23.7 30.83L24.26 32.54C27.39 42.06 29.07 47.16 29.08 47.17C29.09 47.18 29.56 47.21 30.13 47.24C31.86 47.33 34.01 47.53 35.64 47.75C36.01 47.8 36.34 47.82 36.36 47.8C36.37 47.79 36.38 43.53 36.38 37.51L29.32 15.66L29.31 17.73L29.3 26.27L28.64 24.29C28.01 22.35 27.58 21.05 25.02 13.25C24.58 11.93 24.15 10.62 23.71 9.3L23.67 9.16L16.59 9.16Z" fill="url(#paint_radial_113_51_0)" fill-opacity="1.000000" fill-rule="nonzero"/>
		<path id="Vector" d="M16.59 9.16L23.7 30.84L23.7 30.83L24.26 32.54C27.39 42.06 29.07 47.16 29.08 47.17C29.09 47.18 29.56 47.21 30.13 47.24C31.86 47.33 34.01 47.53 35.64 47.75C36.01 47.8 36.34 47.82 36.36 47.8L29.3 26.26L29.3 26.27L28.64 24.29C28.01 22.35 27.58 21.05 25.02 13.25C24.33 11.16 23.74 9.38 23.71 9.3L23.67 9.16L16.59 9.16Z" fill="#E50914" fill-opacity="1.000000" fill-rule="nonzero"/>
		<path id="Vector" d="M29.33 9.19L29.31 17.73L29.3 26.27L28.64 24.29L28.64 24.28L27.8 43.3C28.63 45.82 29.07 47.16 29.08 47.17C29.09 47.18 29.56 47.21 30.13 47.24C31.86 47.33 34.01 47.53 35.64 47.75C36.01 47.8 36.34 47.82 36.36 47.8C36.38 47.78 36.39 39.09 36.38 28.48L36.37 9.19L29.33 9.19Z" fill="#B1060F" fill-opacity="1.000000" fill-rule="nonzero"/>
		<path id="Vector" d="M29.31 17.73L29.3 26.27L28.64 24.29L28.64 24.28L27.8 43.3C28.63 45.82 29.07 47.16 29.08 47.17C29.09 47.18 29.56 47.21 30.13 47.24C31.86 47.33 34.01 47.53 35.64 47.75C36.01 47.8 36.34 47.82 36.36 47.8C36.38 47.78 36.39 39.09 36.38 28.48L36.37 9.19L29.33 9.19L29.31 17.73Z" stroke="#000000" stroke-opacity="1.000000" stroke-width="0.611984"/>
		<path id="Vector" d="M16.59 9.16L16.59 28.47C16.59 39.09 16.6 47.79 16.61 47.81C16.62 47.82 17.23 47.76 17.97 47.67C18.7 47.58 19.72 47.47 20.23 47.42C21 47.35 23.33 47.19 23.59 47.19C23.67 47.19 23.68 46.76 23.69 39.01L23.7 30.83L24.26 32.54L24.46 33.14L25.31 14.13L25.02 13.25C24.58 11.93 24.15 10.62 23.71 9.3L23.67 9.16L16.59 9.16Z" fill="#B1060F" fill-opacity="1.000000" fill-rule="nonzero"/>
		<path id="Vector" d="M16.59 28.47C16.59 39.09 16.6 47.79 16.61 47.81C16.62 47.82 17.23 47.76 17.97 47.67C18.7 47.58 19.72 47.47 20.23 47.42C21 47.35 23.33 47.19 23.59 47.19C23.67 47.19 23.68 46.76 23.69 39.01L23.7 30.83L24.26 32.54L24.46 33.14L25.31 14.13L25.02 13.25C24.58 11.93 24.15 10.62 23.71 9.3L23.67 9.16L16.59 9.16L16.59 28.47Z" stroke="#000000" stroke-opacity="1.000000" stroke-width="0.611984"/>
		<path id="Vector" d="M16.59 9.16L16.59 20L23.69 40.26C23.69 39.79 23.69 39.54 23.69 39.01L23.7 30.83L24.26 32.54C27.39 42.06 29.07 47.16 29.08 47.17C29.09 47.18 29.56 47.21 30.13 47.24C31.86 47.33 34.01 47.53 35.64 47.75C36.01 47.8 36.34 47.82 36.36 47.8C36.37 47.79 36.38 43.53 36.38 37.51L29.32 15.66L29.31 17.73L29.3 26.27L28.64 24.29C28.01 22.35 27.58 21.05 25.02 13.25C24.58 11.93 24.15 10.62 23.71 9.3L23.67 9.16L16.59 9.16Z" fill="url(#paint_radial_113_55_0)" fill-opacity="1.000000" fill-rule="nonzero"/>
		<path id="Vector" d="M16.59 9.16L23.7 30.84L23.7 30.83L24.26 32.54C27.39 42.06 29.07 47.16 29.08 47.17C29.09 47.18 29.56 47.21 30.13 47.24C31.86 47.33 34.01 47.53 35.64 47.75C36.01 47.8 36.34 47.82 36.36 47.8L29.3 26.26L29.3 26.27L28.64 24.29C28.01 22.35 27.58 21.05 25.02 13.25C24.33 11.16 23.74 9.38 23.71 9.3L23.67 9.16L16.59 9.16Z" fill="#E50914" fill-opacity="1.000000" fill-rule="nonzero"/>
	</g>
</svg>
