<svg width="207.000397" height="55.615887" viewBox="0 0 207 55.6159" fill="none" xmlns="http://www.w3.org/2000/svg" xmlns:xlink="http://www.w3.org/1999/xlink">
	<desc>
			Created with Pixso.
	</desc>
	<defs/>
	<path id="Vector" d="M137.72 0L137.72 40.51C142.72 40.74 147.7 41.02 152.67 41.35L152.67 49.94C144.79 49.42 136.9 49.02 129 48.74L129 0L137.72 0ZM207 0L195.64 26.32L206.99 55.6L206.98 55.61C203.67 55.14 200.36 54.69 197.04 54.27L190.67 37.83L184.24 52.74C181.19 52.4 178.14 52.08 175.08 51.79L186.14 26.14L176.01 0L185.44 0L191.11 14.63L197.42 0L207 0ZM99.09 48.32L99.09 0L123.42 0L123.42 8.67L107.8 8.67L107.8 19.9L119.62 19.9L119.62 28.49L107.8 28.49L107.8 48.32L99.09 48.32ZM66.53 8.67L66.53 0L93.5 0L93.5 8.67L84.37 8.67L84.37 48.55C81.46 48.63 78.56 48.72 75.66 48.83L75.66 8.67L66.53 8.67ZM36.73 51.33L36.73 0L60.95 0L60.95 8.67L45.45 8.67L45.45 20.41C49.01 20.36 54.07 20.31 57.22 20.32L57.22 28.91C53.28 28.86 48.83 28.96 45.45 28.99L45.45 42C50.61 41.59 55.78 41.24 60.95 40.94L60.95 49.53C52.87 49.99 44.79 50.59 36.73 51.33L36.73 51.33ZM19.63 31.47L19.63 0L28.35 0L28.35 52.14C25.16 52.46 21.98 52.81 18.81 53.18L8.71 24.18L8.71 54.42C5.8 54.8 2.9 55.2 0 55.61L0 0L8.28 0L19.63 31.47L19.63 31.47ZM159.86 50.46L159.86 0L168.58 0L168.58 51.18C165.68 50.92 162.78 50.68 159.86 50.46L159.86 50.46Z" fill="#DB202C" fill-opacity="1.000000" fill-rule="nonzero"/>
</svg>
