<svg width="17.000000" height="18.000000" viewBox="0 0 17 18" fill="none" xmlns="http://www.w3.org/2000/svg" xmlns:xlink="http://www.w3.org/1999/xlink">
	<desc>
			Created with Pixso.
	</desc>
	<defs/>
	<path id="Vector" d="M0 9C0 10.65 1.34 12 3 12C3.79 12 4.51 11.68 5.04 11.18L11.04 14.6C11.02 14.73 11 14.86 11 15C11 16.65 12.34 18 14 18C15.65 18 17 16.65 17 15C17 13.34 15.65 12 14 12C13.2 12 12.48 12.31 11.95 12.82L5.95 9.39C5.97 9.26 6 9.13 6 9C6 8.86 5.97 8.73 5.95 8.6L11.95 5.18C12.48 5.68 13.2 6 14 6C15.65 6 17 4.65 17 3C17 1.34 15.65 0 14 0C12.34 0 11 1.34 11 3C11 3.13 11.02 3.26 11.04 3.39L5.04 6.82C4.49 6.29 3.76 6 3 6C1.34 6 0 7.34 0 9Z" fill="#FFFFFF" fill-opacity="1.000000" fill-rule="nonzero"/>
</svg>
