<svg width="20.000000" height="20.000000" viewBox="0 0 20 20" fill="none" xmlns="http://www.w3.org/2000/svg" xmlns:xlink="http://www.w3.org/1999/xlink">
	<desc>
			Created with Pixso.
	</desc>
	<defs/>
	<path id="Vector" d="M2 4L0 4L0 18C0 19.1 0.9 20 2 20L16 20L16 18L2 18L2 4ZM18 0L6 0C4.9 0 4 0.89 4 2L4 14C4 15.1 4.9 16 6 16L18 16C19.1 16 20 15.1 20 14L20 2C20 0.89 19.1 0 18 0ZM18 14L6 14L6 2L18 2L18 14ZM10 3.5L10 12.5L16 8L10 3.5Z" fill="#8C8787" fill-opacity="1.000000" fill-rule="nonzero"/>
</svg>
