<svg width="14.062988" height="13.983398" viewBox="0 0 14.063 13.9834" fill="none" xmlns="http://www.w3.org/2000/svg" xmlns:xlink="http://www.w3.org/1999/xlink">
	<desc>
			Created with Pixso.
	</desc>
	<defs/>
	<path id="Vector" d="M7.94 13.82L7.94 12.24C7.94 12.15 7.9 12.06 7.83 12L2.9 7.73L13.9 7.73C13.99 7.73 14.06 7.66 14.06 7.57L14.06 6.4C14.06 6.31 13.99 6.24 13.9 6.24L2.9 6.24L7.83 1.97C7.9 1.91 7.94 1.82 7.94 1.73L7.94 0.15C7.94 0.02 7.78 -0.05 7.68 0.03L0.21 6.52C0.14 6.57 0.09 6.65 0.05 6.73C0.01 6.81 0 6.9 0 6.99C0 7.08 0.01 7.17 0.05 7.25C0.09 7.33 0.14 7.4 0.21 7.46L7.68 13.94C7.78 14.03 7.94 13.96 7.94 13.82Z" fill="#FFFFFF" fill-opacity="1.000000" fill-rule="nonzero"/>
</svg>
