<svg width="28.606201" height="11.088867" viewBox="0 0 28.6062 11.0889" fill="none" xmlns="http://www.w3.org/2000/svg" xmlns:xlink="http://www.w3.org/1999/xlink">
	<desc>
			Created with Pixso.
	</desc>
	<defs/>
	<path id="Time" d="M8.15 5.42C8.15 8.98 6.55 11.08 3.86 11.08C1.93 11.08 0.46 9.94 0.14 8.21L2.02 8.21C2.27 9 2.97 9.5 3.88 9.5C5.42 9.5 6.34 8.06 6.34 5.64L6.21 5.64C5.72 6.65 4.71 7.22 3.47 7.22C1.46 7.22 1.43e-5 5.74 1.43e-5 3.71C1.43e-5 1.54 1.62 0 3.92 0C5.47 0 6.69 0.73 7.4 2.08C7.89 2.95 8.15 4.08 8.15 5.42ZM21.19 10.83L19.39 10.83L19.39 8.86L14.22 8.86L14.22 7.17C15.17 5.42 16.66 3.07 18.53 0.26L21.19 0.26L21.19 7.26L22.62 7.26L22.62 8.86L21.19 8.86L21.19 10.83ZM28.6 10.83L26.71 10.83L26.71 2.16L26.59 2.16L23.96 4.01L23.96 2.19L26.72 0.26L28.6 0.26L28.6 10.83ZM1.85 3.65C1.85 4.86 2.71 5.72 3.93 5.72C5.14 5.72 6.02 4.86 6.02 3.68C6.02 2.49 5.11 1.57 3.94 1.57C2.76 1.57 1.85 2.47 1.85 3.65ZM19.31 1.8C18.3 3.29 17.2 5.03 15.97 7.19L15.97 7.3L19.41 7.3L19.41 1.8L19.31 1.8ZM12.47 4.34C12.47 5 11.99 5.49 11.3 5.49C10.61 5.49 10.13 5 10.13 4.34C10.13 3.67 10.61 3.18 11.3 3.18C11.99 3.18 12.47 3.67 12.47 4.34ZM12.47 9.82C12.47 10.48 11.99 10.98 11.3 10.98C10.61 10.98 10.13 10.48 10.13 9.82C10.13 9.16 10.61 8.67 11.3 8.67C11.99 8.67 12.47 9.16 12.47 9.82Z" fill="#FFFFFF" fill-opacity="1.000000" fill-rule="evenodd"/>
</svg>
