<svg width="21.000000" height="24.001312" viewBox="0 0 21 24.0013" fill="none" xmlns="http://www.w3.org/2000/svg" xmlns:xlink="http://www.w3.org/1999/xlink">
	<desc>
			Created with Pixso.
	</desc>
	<defs/>
	<path id="Vector" d="M10.5 24C11.29 24 12.05 23.68 12.62 23.12C13.18 22.56 13.5 21.79 13.5 21L7.5 21C7.5 21.79 7.81 22.56 8.37 23.12C8.94 23.68 9.7 24 10.5 24ZM11.99 1.64C12.01 1.44 11.99 1.23 11.92 1.03C11.85 0.83 11.75 0.64 11.61 0.49C11.47 0.33 11.3 0.21 11.1 0.12C10.91 0.04 10.7 0 10.5 0C10.29 0 10.08 0.04 9.89 0.12C9.69 0.21 9.52 0.33 9.38 0.49C9.24 0.64 9.14 0.83 9.07 1.03C9 1.23 8.98 1.44 9 1.64C7.31 1.99 5.78 2.91 4.69 4.25C3.59 5.59 3 7.27 3 9C3 10.64 2.25 18 0 19.5L21 19.5C18.75 18 18 10.64 18 9C18 5.37 15.41 2.34 11.99 1.64Z" fill="#FFFFFF" fill-opacity="1.000000" fill-rule="nonzero"/>
</svg>
